<?xml version="1.0" standalone="no"?>
<!DOCTYPE svg PUBLIC "-//W3C//DTD SVG 20010904//EN"
 "http://www.w3.org/TR/2001/REC-SVG-20010904/DTD/svg10.dtd">
<svg version="1.0" xmlns="http://www.w3.org/2000/svg"
 width="910.000000pt" height="910.000000pt" viewBox="0 0 910.000000 910.000000"
 preserveAspectRatio="xMidYMid meet">
<metadata>
Created by potrace 1.14, written by Peter Selinger 2001-2017
</metadata>
<g transform="translate(0.000000,910.000000) scale(0.100000,-0.100000)"
fill="#000000" stroke="none">
<path d="M6546 9038 c-11 -6 -47 -10 -80 -10 -38 1 -69 -5 -83 -14 -13 -8 -46
-14 -79 -14 -55 0 -160 -22 -195 -40 -27 -14 -137 -33 -159 -27 -30 8 -136
-43 -191 -91 -30 -27 -79 -54 -148 -81 -56 -22 -112 -47 -124 -56 -12 -8 -29
-15 -39 -15 -9 0 -32 -13 -50 -29 -18 -15 -43 -32 -56 -35 -12 -4 -32 -17 -43
-29 -11 -12 -44 -35 -73 -52 -106 -60 -134 -84 -162 -135 -15 -27 -30 -50 -35
-50 -4 0 -9 -10 -13 -23 -3 -12 -20 -40 -39 -62 -19 -22 -37 -51 -40 -65 -3
-14 -21 -43 -40 -65 -44 -52 -87 -127 -87 -151 0 -10 -9 -37 -19 -59 -59 -123
-90 -206 -96 -255 -4 -30 -9 -58 -11 -62 -2 -3 -7 -39 -10 -80 -3 -40 -8 -98
-11 -128 -5 -52 -5 -349 0 -455 2 -50 2 -50 -28 -48 -16 1 -57 15 -90 30 -43
20 -86 30 -150 35 -131 12 -226 19 -255 18 -14 0 -82 0 -152 1 -91 0 -144 -4
-184 -16 -31 -9 -67 -14 -79 -11 -12 3 -38 -4 -61 -16 -21 -12 -68 -26 -104
-30 -152 -17 -190 -24 -202 -36 -7 -7 -28 -12 -47 -12 -55 0 -108 -18 -144
-49 -19 -17 -58 -35 -97 -45 -35 -9 -74 -26 -85 -36 -12 -11 -30 -20 -41 -20
-11 0 -35 -11 -54 -25 -19 -14 -38 -25 -42 -25 -5 0 -25 -11 -46 -24 -20 -14
-50 -28 -67 -32 -16 -4 -42 -19 -57 -35 -15 -16 -46 -33 -73 -40 -26 -7 -52
-20 -58 -31 -7 -11 -34 -31 -60 -44 -26 -14 -79 -55 -117 -92 -38 -37 -77 -75
-87 -84 -10 -9 -40 -43 -68 -74 -27 -32 -82 -89 -120 -128 -39 -39 -76 -84
-83 -101 -8 -16 -22 -35 -33 -43 -10 -7 -26 -28 -35 -45 -9 -18 -25 -41 -35
-52 -47 -51 -79 -94 -79 -107 0 -8 -18 -32 -40 -53 -22 -21 -40 -44 -40 -50 0
-7 -35 -58 -77 -116 -68 -91 -97 -127 -138 -173 -21 -23 -71 -84 -105 -126
-19 -25 -64 -74 -100 -111 -36 -37 -83 -91 -105 -119 -55 -72 -262 -280 -278
-280 -7 0 -34 -20 -59 -44 -46 -43 -201 -156 -216 -156 -5 0 -31 -19 -58 -43
-28 -23 -78 -60 -112 -82 -34 -22 -64 -48 -68 -57 -3 -9 -28 -35 -57 -58 -29
-22 -68 -55 -87 -72 -46 -43 -140 -187 -140 -215 0 -22 -31 -112 -50 -145 -6
-10 -10 -28 -10 -42 0 -13 -11 -49 -25 -79 -29 -67 -38 -142 -20 -177 7 -14
15 -42 19 -64 6 -31 24 -55 102 -129 52 -50 94 -97 94 -105 0 -7 4 -10 10 -7
5 3 10 1 10 -5 0 -6 8 -14 19 -18 10 -4 31 -17 47 -29 80 -62 174 -116 252
-145 4 -1 15 -9 24 -17 44 -38 292 -71 333 -46 11 7 50 15 88 18 37 2 73 9 80
14 6 6 32 11 57 13 96 6 94 5 158 31 13 5 32 9 42 9 11 0 20 5 20 10 0 6 7 10
15 10 8 0 15 4 15 9 0 11 59 33 70 26 4 -2 15 2 26 9 10 8 24 11 31 9 8 -3 13
-2 12 3 -6 34 6 46 76 79 42 19 81 35 89 35 7 0 21 9 32 21 10 12 38 32 60 45
25 15 45 35 48 49 3 13 21 34 39 47 39 27 105 97 112 119 3 8 23 26 46 38 22
13 54 38 71 56 16 18 42 39 58 45 16 7 33 24 38 38 5 15 37 54 72 87 106 103
156 163 183 218 9 20 25 53 34 73 9 19 27 46 39 59 12 14 25 33 29 44 3 12 22
39 41 62 19 22 34 52 34 65 0 14 15 48 33 77 46 72 55 97 76 217 5 25 23 84
40 132 17 49 31 102 31 120 0 17 16 59 35 94 19 34 35 71 35 81 1 35 39 99
100 163 34 36 67 79 75 95 20 47 88 123 162 182 24 19 43 43 46 61 6 31 112
119 212 176 28 16 65 46 83 67 18 21 43 41 55 45 12 4 40 15 62 25 139 63 261
85 366 64 46 -9 57 -32 71 -150 8 -73 18 -104 49 -164 l39 -75 -20 -61 c-11
-34 -36 -86 -55 -115 -19 -30 -35 -62 -35 -71 0 -9 -10 -36 -23 -60 -13 -24
-40 -88 -61 -141 -21 -54 -41 -100 -46 -103 -4 -2 -11 -25 -14 -50 -4 -25 -21
-65 -40 -93 -19 -26 -38 -68 -44 -92 -22 -93 -29 -116 -45 -147 -10 -18 -17
-42 -17 -54 0 -31 -40 -139 -64 -172 -14 -19 -21 -48 -24 -95 -2 -43 -12 -86
-28 -120 -13 -29 -24 -61 -24 -72 0 -10 -5 -31 -11 -47 -32 -80 -46 -177 -58
-398 -6 -122 -5 -165 4 -180 7 -11 16 -53 20 -93 8 -85 32 -121 99 -153 23
-10 50 -32 61 -49 11 -16 31 -34 45 -40 14 -6 36 -17 50 -25 14 -8 51 -20 83
-26 48 -10 57 -15 57 -33 1 -11 7 -32 15 -46 8 -14 14 -35 15 -47 0 -12 13
-59 28 -105 24 -73 36 -91 89 -144 33 -33 73 -79 88 -102 15 -23 32 -42 36
-42 5 0 17 -16 26 -35 9 -19 31 -44 49 -54 17 -10 44 -36 60 -57 57 -79 181
-190 231 -209 26 -10 62 -26 79 -36 17 -11 41 -19 52 -19 27 0 37 -17 33 -57
-1 -17 5 -45 13 -61 20 -39 27 -82 28 -166 0 -39 8 -94 19 -130 11 -33 25 -79
31 -101 7 -22 20 -53 29 -70 9 -16 20 -48 24 -70 4 -22 17 -49 30 -61 14 -12
27 -35 30 -51 3 -15 12 -46 20 -68 7 -22 19 -56 26 -75 25 -73 42 -116 60
-156 10 -23 19 -44 19 -48 0 -4 11 -22 24 -39 14 -18 38 -70 55 -117 17 -47
40 -97 51 -112 11 -15 20 -32 20 -37 0 -6 13 -17 29 -25 16 -9 54 -44 84 -79
31 -35 67 -69 81 -77 14 -7 28 -21 31 -30 14 -44 147 -150 189 -150 9 0 138
-59 196 -91 19 -10 63 -32 96 -49 34 -17 67 -37 74 -45 7 -8 26 -15 42 -15 17
0 42 -8 56 -18 15 -10 47 -24 72 -31 25 -7 50 -17 55 -21 6 -4 28 -13 50 -20
22 -7 45 -16 50 -21 6 -4 35 -9 65 -9 30 -1 83 -6 118 -11 62 -9 63 -9 150 37
48 26 92 53 97 62 6 8 22 29 36 46 14 17 42 64 62 104 35 71 36 77 31 153 -6
87 -6 88 56 68 19 -7 71 -15 115 -19 44 -5 111 -15 149 -24 74 -17 125 -19
301 -13 133 4 179 14 269 58 71 33 179 132 192 174 3 11 20 48 36 82 17 35 27
69 24 80 -3 10 -2 33 3 51 7 24 6 42 -5 67 -8 19 -14 56 -14 82 0 32 -7 56
-20 73 -11 14 -20 31 -20 38 0 7 -4 20 -9 30 -5 9 -14 44 -20 77 -7 39 -20 68
-36 85 -13 14 -30 41 -36 60 -7 19 -17 42 -24 50 -7 8 -20 40 -30 70 -10 30
-23 62 -30 70 -8 8 -16 32 -20 52 -4 21 -19 50 -34 65 -16 17 -37 59 -50 103
-13 41 -31 91 -41 110 -10 20 -22 60 -25 90 -8 63 -20 108 -45 165 -10 22 -28
76 -40 120 -11 44 -30 114 -41 155 -11 41 -29 84 -40 96 -32 34 -25 49 24 50
69 0 120 7 157 20 19 7 51 15 71 18 21 4 42 13 49 21 6 7 53 37 103 65 88 48
157 101 157 120 0 5 6 15 13 22 6 7 25 33 42 58 16 25 44 61 61 81 21 25 34
51 39 85 4 27 13 61 21 76 8 15 19 61 25 103 10 74 9 79 -25 179 -20 57 -36
112 -36 123 0 11 -11 35 -25 54 -14 19 -32 50 -41 69 -43 95 -59 125 -84 154
-15 17 -30 38 -33 46 -25 55 -133 209 -152 216 -7 3 -20 22 -29 42 -15 37 -63
92 -130 147 -20 17 -48 54 -62 83 -27 53 -57 83 -113 114 -18 10 -38 32 -46
50 -7 18 -34 48 -59 67 -25 19 -46 39 -46 43 0 5 31 8 68 7 37 -1 77 3 87 9
11 6 45 14 76 17 37 4 68 15 90 31 18 13 37 24 42 24 18 0 117 50 117 59 0 5
28 21 63 35 34 15 71 36 82 46 11 10 41 28 68 40 26 12 47 26 47 30 0 5 21 16
48 24 26 9 68 33 94 54 231 185 243 197 282 274 18 36 58 86 103 130 41 40 86
93 100 118 15 25 39 60 55 78 16 18 28 45 28 60 0 15 10 47 23 72 12 25 28 65
36 90 7 25 18 56 23 70 22 55 35 192 44 485 2 94 6 179 7 190 1 11 -2 72 -7
135 -7 103 -6 121 12 175 29 85 29 266 0 302 -5 6 -12 38 -15 70 -3 32 -14 74
-25 93 -10 19 -18 46 -18 59 0 50 -33 132 -60 146 -44 23 -69 59 -80 115 -7
39 -20 64 -44 90 -62 66 -73 81 -91 120 -10 22 -36 52 -61 70 -24 17 -44 35
-44 40 0 5 -6 15 -13 22 -8 7 -25 31 -39 53 -27 43 -203 225 -217 225 -5 0
-27 18 -50 40 -22 22 -48 40 -56 40 -9 0 -28 20 -42 44 -15 25 -36 50 -48 56
-11 6 -33 31 -50 55 -16 24 -39 48 -52 54 -12 6 -50 27 -84 48 -57 35 -83 56
-166 135 -29 28 -80 52 -208 101 -124 47 -174 60 -226 59 -31 -1 -72 5 -91 13
-19 7 -44 12 -55 9 -12 -3 -43 4 -70 16 -71 32 -192 48 -323 44 -63 -2 -131 0
-150 5 -73 19 -86 20 -104 9z m596 -533 c159 -21 258 -50 397 -117 124 -61
319 -184 398 -253 50 -43 154 -168 186 -223 12 -21 56 -85 98 -142 164 -225
316 -547 381 -805 38 -149 44 -305 15 -398 -17 -56 -17 -59 3 -123 60 -197
-19 -381 -300 -696 -33 -37 -60 -70 -60 -75 -1 -9 -160 -116 -218 -147 -21
-11 -113 -69 -207 -129 -189 -122 -320 -191 -392 -208 -26 -6 -176 -14 -333
-18 l-285 -6 -27 -55 c-21 -42 -27 -70 -27 -122 -1 -97 14 -156 79 -305 152
-351 338 -590 724 -933 283 -252 340 -365 243 -484 -50 -60 -146 -123 -205
-133 -83 -14 -271 -9 -362 10 -119 25 -354 145 -484 248 -49 39 -66 47 -66 30
0 -6 30 -94 66 -198 78 -222 230 -676 275 -818 38 -124 155 -367 237 -498 35
-54 81 -133 104 -175 23 -43 70 -125 105 -184 84 -142 169 -320 182 -386 63
-306 -165 -310 -682 -11 -82 48 -270 187 -401 298 l-89 75 6 -34 c3 -19 20
-101 36 -181 38 -183 60 -349 68 -505 6 -120 6 -122 -19 -147 -31 -31 -121
-52 -181 -42 -90 15 -217 87 -345 197 -176 149 -323 356 -429 603 -86 199
-278 765 -332 975 l-29 115 -119 60 c-149 75 -218 128 -286 219 -127 169 -155
226 -221 446 -55 184 -65 257 -74 534 l-7 208 -90 -107 c-49 -59 -113 -136
-142 -170 -85 -102 -151 -118 -195 -46 -67 107 18 544 193 986 98 247 247 524
399 740 42 61 80 115 83 121 3 6 -24 71 -61 145 -74 148 -105 249 -122 402 -8
73 -8 112 0 154 9 43 9 57 0 63 -22 14 -225 59 -310 70 -265 32 -597 -14 -862
-119 -273 -110 -566 -325 -751 -554 -136 -167 -204 -281 -376 -632 -214 -434
-324 -602 -551 -839 -79 -83 -277 -256 -345 -302 -50 -34 -193 -91 -323 -129
-138 -39 -242 -46 -325 -21 -143 43 -193 190 -99 290 40 42 82 66 237 135 179
80 232 112 379 225 240 185 379 366 601 787 196 369 280 492 465 682 197 204
392 348 632 467 325 161 724 249 1068 236 292 -11 484 -57 613 -148 l27 -19
78 78 c85 86 203 170 325 229 l77 38 0 56 c0 30 7 172 15 315 24 443 58 572
211 806 96 146 166 221 259 276 238 141 520 257 765 314 124 29 127 29 360 23
129 -3 283 -11 342 -19z"/>
<path d="M6410 7590 c-156 -56 -258 -135 -346 -267 -34 -50 -72 -117 -84 -150
-19 -51 -20 -61 -8 -83 18 -32 67 -49 145 -49 128 -2 218 56 316 202 90 133
128 231 113 290 -6 27 -53 77 -70 77 -6 -1 -36 -10 -66 -20z"/>
<path d="M7036 7373 c-32 -227 -69 -335 -160 -472 -52 -77 -186 -200 -257
-237 -72 -36 -220 -72 -331 -80 -54 -3 -98 -10 -98 -14 0 -17 323 -334 452
-444 75 -64 139 -120 143 -126 7 -12 183 -155 310 -252 55 -42 123 -95 152
-117 l51 -41 95 5 c91 4 99 6 203 58 60 30 127 68 149 84 81 60 329 300 394
383 109 138 171 233 171 260 0 51 -647 613 -1050 912 -66 49 -197 128 -212
128 -3 0 -9 -21 -12 -47z"/>
<path d="M5105 6590 c-149 -90 -237 -180 -302 -308 -36 -72 -38 -79 -36 -166
1 -65 9 -117 27 -181 25 -85 87 -227 119 -270 19 -25 24 -21 136 110 47 55
125 143 173 196 l88 97 0 71 c0 51 -6 83 -19 110 -24 47 -67 214 -76 296 -8
71 -14 95 -23 94 -4 0 -43 -22 -87 -49z"/>
<path d="M4984 4534 c-50 -60 -150 -191 -222 -291 l-132 -182 0 -87 c0 -95 21
-300 46 -459 45 -278 204 -516 420 -628 50 -25 93 -44 96 -42 2 3 -1 41 -8 85
-7 44 -22 151 -33 237 -12 87 -25 187 -31 223 -19 123 -33 416 -39 834 l-6
419 -91 -109z"/>
</g>
</svg>
