<?xml version="1.0" standalone="no"?>
<!DOCTYPE svg PUBLIC "-//W3C//DTD SVG 20010904//EN"
 "http://www.w3.org/TR/2001/REC-SVG-20010904/DTD/svg10.dtd">
<svg version="1.0" xmlns="http://www.w3.org/2000/svg"
 width="574.000000pt" height="574.000000pt" viewBox="0 0 574.000000 574.000000"
 preserveAspectRatio="xMidYMid meet">
<metadata>
Created by potrace 1.11, written by Peter Selinger 2001-2013
</metadata>
<g transform="translate(0.000000,574.000000) scale(0.100000,-0.100000)"
fill="#000000" stroke="none">
<path d="M3440 5729 c-30 -4 -80 -10 -110 -14 -93 -12 -314 -72 -428 -116
-373 -146 -694 -368 -1057 -733 -174 -175 -207 -211 -306 -331 -135 -164 -335
-453 -439 -635 -80 -139 -217 -414 -270 -540 -29 -69 -58 -138 -65 -155 -79
-185 -185 -553 -240 -831 -26 -135 -31 -163 -41 -249 -3 -27 -7 -61 -10 -75
-12 -59 -11 -401 1 -500 16 -131 19 -144 50 -266 65 -253 159 -455 297 -642
241 -327 584 -535 1013 -617 143 -27 528 -27 675 -1 14 3 41 7 60 10 205 31
443 104 645 196 116 54 216 104 270 135 33 19 67 38 75 41 8 4 34 20 57 36 23
15 44 28 47 28 17 0 353 247 396 290 3 3 34 30 70 59 96 81 353 342 448 455
267 321 535 736 651 1007 63 145 55 252 -20 278 -45 16 -59 14 -107 -12 -59
-31 -122 -95 -205 -207 -295 -398 -484 -624 -702 -843 -239 -238 -509 -388
-864 -477 -324 -81 -648 -54 -939 81 -228 105 -420 281 -550 502 -47 80 -126
247 -120 251 2 2 71 42 153 91 891 525 1533 1022 1955 1515 414 484 663 936
708 1287 15 118 7 292 -17 388 -78 301 -317 507 -681 585 -65 14 -321 20 -400
9z m-320 -590 c104 -24 227 -119 297 -227 96 -149 132 -389 93 -623 -55 -332
-341 -849 -644 -1168 -67 -69 -167 -167 -206 -201 -14 -12 -38 -34 -55 -48
-16 -15 -50 -43 -75 -62 -25 -19 -47 -37 -50 -40 -3 -4 -32 -26 -65 -51 -33
-24 -69 -52 -80 -61 -101 -85 -710 -465 -719 -450 -4 8 -22 98 -32 162 -10 68
-12 386 -3 460 4 36 10 88 13 117 5 46 29 195 40 248 3 11 12 54 21 95 51 242
141 520 250 775 202 472 426 757 752 957 198 121 318 152 463 117z"/>
</g>
</svg>
