<?xml version="1.0" standalone="no"?>
<!DOCTYPE svg PUBLIC "-//W3C//DTD SVG 20010904//EN"
 "http://www.w3.org/TR/2001/REC-SVG-20010904/DTD/svg10.dtd">
<svg version="1.0" xmlns="http://www.w3.org/2000/svg"
 width="100pt" height="100pt" viewBox="0 0 1915.000000 1915.000000"
 preserveAspectRatio="xMidYMid meet">

<g transform="translate(0.000000,1915.000000) scale(0.100000,-0.100000)"
fill="#000000" stroke="none">
<path d="M6899 19139 c-882 -16 -1630 -56 -2049 -109 -1073 -136 -2009 -487
-2707 -1017 -340 -257 -709 -623 -975 -965 -491 -631 -849 -1503 -1003 -2441
-89 -543 -132 -1207 -155 -2437 -13 -668 -13 -4522 0 -5190 19 -999 54 -1681
111 -2130 132 -1060 472 -1972 997 -2680 250 -337 599 -696 932 -960 737 -583
1677 -948 2805 -1089 366 -46 726 -68 1685 -102 440 -16 4678 -23 5473 -10
1322 23 2046 65 2562 152 918 153 1719 465 2344 914 222 159 395 308 622 534
217 218 363 386 512 591 464 636 779 1437 937 2376 70 417 101 856 141 1964
16 439 24 4658 10 5465 -19 1120 -53 1823 -112 2290 -141 1127 -507 2069
-1089 2805 -264 333 -623 682 -960 932 -707 525 -1616 863 -2680 997 -439 56
-1135 92 -2130 111 -590 11 -4661 11 -5271 -1z m5731 -1738 c916 -35 1191 -53
1520 -97 815 -109 1458 -366 1955 -783 129 -108 335 -317 445 -451 361 -443
604 -1020 724 -1725 67 -399 91 -734 128 -1805 18 -521 18 -5413 0 -5930 -35
-1011 -57 -1341 -113 -1708 -107 -707 -344 -1312 -686 -1755 -155 -200 -400
-445 -599 -599 -444 -343 -1049 -580 -1756 -687 -366 -56 -695 -78 -1703 -113
-511 -18 -5428 -18 -5940 0 -1078 38 -1402 61 -1800 128 -705 120 -1282 363
-1725 724 -200 164 -434 409 -582 611 -272 369 -483 883 -597 1454 -83 413
-113 783 -153 1900 -18 498 -18 5522 0 6020 34 955 54 1255 103 1605 107 763
355 1391 735 1865 114 141 368 395 509 509 287 230 629 410 1032 545 384 128
778 199 1373 246 206 17 1191 52 1620 59 545 8 5255 -3 5510 -13z"/>
<path d="M14590 15834 c-14 -2 -59 -9 -100 -15 -330 -49 -654 -282 -818 -589
-153 -286 -178 -627 -67 -936 120 -337 408 -610 750 -709 136 -39 214 -48 380
-42 167 5 271 28 416 91 257 111 492 353 596 611 146 363 110 749 -101 1074
-55 86 -186 225 -276 292 -123 93 -295 169 -460 204 -72 15 -274 27 -320 19z"/>
<path d="M9170 14479 c-914 -74 -1830 -424 -2560 -980 -204 -155 -311 -249
-510 -449 -200 -199 -294 -306 -449 -510 -562 -739 -908 -1648 -981 -2584 -15
-189 -12 -615 5 -808 81 -915 403 -1766 950 -2503 210 -283 540 -633 803 -850
796 -656 1713 -1031 2742 -1121 229 -20 719 -15 935 11 606 70 1135 226 1663
490 496 248 890 532 1282 925 393 392 677 786 925 1282 265 530 419 1055 492
1673 22 188 25 814 5 995 -114 1027 -478 1896 -1117 2672 -137 166 -450 481
-615 618 -805 670 -1737 1051 -2785 1140 -141 12 -633 11 -785 -1z m760 -1734
c677 -78 1293 -358 1797 -817 512 -465 869 -1114 988 -1793 43 -245 58 -621
35 -856 -63 -632 -291 -1198 -680 -1689 -107 -135 -375 -403 -510 -510 -491
-389 -1057 -617 -1689 -680 -235 -23 -611 -8 -856 35 -1280 224 -2309 1229
-2565 2505 -44 220 -60 387 -60 635 0 410 67 783 204 1138 430 1113 1429 1890
2611 2031 168 19 555 20 725 1z"/>
</g>
</svg>
