<?xml version="1.0" standalone="no"?>
<!DOCTYPE svg PUBLIC "-//W3C//DTD SVG 20010904//EN"
 "http://www.w3.org/TR/2001/REC-SVG-20010904/DTD/svg10.dtd">
<svg version="1.0" xmlns="http://www.w3.org/2000/svg"
 width="100pt" height="100pt" viewBox="0 0 494.000000 494.000000"
 preserveAspectRatio="xMidYMid meet">

<g transform="translate(0.000000,494.000000) scale(0.100000,-0.100000)"
fill="#000000" stroke="none">
<path d="M4425 4855 c-7 -3 -1189 -188 -1695 -265 -79 -12 -759 -118 -1285
-200 -247 -39 -596 -93 -775 -121 -178 -27 -325 -51 -326 -52 -1 -1 74 -283
166 -628 92 -344 170 -637 174 -652 l6 -27 -345 0 -345 0 0 -102 0 -101 111
-341 c61 -188 146 -449 189 -581 146 -445 358 -1100 381 -1170 12 -38 24 -73
28 -77 3 -4 107 8 231 27 124 18 275 41 335 50 61 9 200 29 310 46 563 84 937
139 941 139 2 0 4 -158 4 -351 0 -330 1 -351 18 -346 9 3 415 188 902 412 487
224 950 436 1030 472 80 36 146 66 147 67 1 1 123 724 229 1361 36 213 62 344
70 351 8 6 14 25 14 43 l0 31 -335 0 -335 0 5 43 c3 23 19 200 35 392 30 350
42 497 60 695 5 58 23 267 40 465 16 198 32 375 34 393 5 31 2 35 -19 27z
m-690 -1233 c65 -30 93 -56 121 -117 49 -104 23 -247 -59 -325 l-34 -33 45
-31 c27 -19 56 -49 70 -76 21 -40 23 -55 20 -130 -8 -168 -94 -254 -278 -279
-80 -11 -560 -3 -580 9 -14 9 -14 960 0 974 13 13 346 34 505 32 122 -1 146
-4 190 -24z m-787 -123 c2 -83 0 -109 -12 -118 -12 -10 -258 -30 -388 -31 -27
0 -28 -2 -28 -52 l0 -53 172 8 c95 4 179 5 186 2 9 -3 12 -37 12 -124 0 -99
-3 -120 -16 -125 -9 -3 -94 -6 -190 -6 l-174 0 0 -53 0 -54 207 -6 c114 -4
211 -11 215 -15 5 -5 7 -58 6 -118 l-3 -109 -303 4 c-167 2 -318 7 -335 10
l-32 7 -3 441 c-2 370 0 442 12 452 8 7 80 16 168 22 84 6 203 14 263 19 61 4
139 7 175 6 l65 -1 3 -106z m-745 49 c2 -7 -6 -49 -18 -93 -13 -44 -62 -224
-109 -400 -48 -176 -91 -335 -97 -352 l-11 -33 -133 0 c-80 0 -136 4 -140 10
-9 14 -105 367 -105 385 0 21 -18 19 -24 -2 -3 -10 -26 -90 -51 -178 -65 -229
-43 -205 -183 -205 -80 0 -123 4 -133 13 -22 18 -204 766 -190 780 17 17 214
27 226 12 6 -7 30 -103 54 -214 25 -112 50 -201 56 -201 6 0 35 97 64 215 37
148 59 218 70 224 28 14 209 21 219 8 5 -7 36 -119 68 -249 l58 -238 62 251
c34 138 65 254 70 259 19 19 240 25 247 8z m-981 -1044 c200 -5 300 -11 306
-18 4 -6 5 -67 2 -136 l-5 -125 -137 -3 -138 -3 0 -370 c0 -287 -3 -371 -12
-374 -32 -11 -264 -21 -275 -12 -10 7 -13 97 -13 388 l0 379 -137 0 c-76 0
-143 4 -149 8 -13 8 -30 254 -19 273 6 9 43 10 144 5 75 -3 270 -9 433 -12z
m994 -34 c284 -98 413 -425 279 -708 -82 -174 -247 -272 -455 -272 -286 0
-477 178 -496 460 -19 284 147 497 420 541 72 11 185 2 252 -21z m969 -15
c240 -63 377 -294 324 -547 -25 -116 -110 -238 -206 -295 -108 -63 -263 -81
-381 -45 -263 83 -387 393 -263 659 88 188 310 284 526 228z m581 -11 l59 -6
129 -194 c71 -107 133 -194 137 -194 11 0 10 -10 18 205 l6 180 109 3 c74 2
113 -1 123 -9 11 -10 13 -30 9 -93 -3 -45 -11 -214 -17 -376 -6 -163 -16 -301
-21 -307 -7 -9 -42 -13 -112 -13 l-101 1 -120 174 c-66 96 -123 175 -127 175
-5 0 -8 -81 -8 -179 0 -99 -3 -182 -8 -185 -4 -2 -61 -8 -126 -12 -88 -5 -120
-4 -125 5 -8 12 -3 795 4 819 5 13 74 16 171 6z"/>
<path d="M3378 3413 l-68 -4 0 -75 0 -75 98 6 c119 8 146 23 150 82 2 25 -2
44 -11 51 -17 15 -81 20 -169 15z"/>
<path d="M3307 3004 c-4 -4 -7 -38 -7 -76 l0 -68 83 -2 c168 -4 197 6 197 71
0 64 -22 75 -154 79 -61 2 -114 0 -119 -4z"/>
<path d="M1965 2206 c-73 -34 -118 -115 -118 -216 0 -141 78 -230 203 -230
133 0 213 86 214 230 1 95 -27 158 -87 198 -32 22 -54 27 -111 30 -45 1 -82
-3 -101 -12z"/>
<path d="M3007 2205 c-84 -29 -121 -88 -121 -195 -1 -62 3 -83 24 -120 36 -64
79 -90 151 -90 66 0 104 12 138 43 80 73 82 261 3 330 -48 43 -129 56 -195 32z"/>
</g>
</svg>
