<?xml version="1.0" standalone="no"?>
<!DOCTYPE svg PUBLIC "-//W3C//DTD SVG 20010904//EN"
 "http://www.w3.org/TR/2001/REC-SVG-20010904/DTD/svg10.dtd">
<svg version="1.0" xmlns="http://www.w3.org/2000/svg"
 width="100pt" height="100pt" viewBox="0 0 910.000000 910.000000"
 preserveAspectRatio="xMidYMid meet">

<g transform="translate(0.000000,910.000000) scale(0.100000,-0.100000)"
fill="#000000" stroke="none">
<path d="M6555 9037 c-9 -5 -44 -9 -78 -9 -34 0 -73 -6 -87 -13 -14 -7 -61
-15 -105 -18 -76 -5 -95 -10 -190 -45 -22 -8 -72 -16 -112 -18 -88 -4 -160
-35 -230 -99 -28 -25 -56 -45 -62 -45 -6 0 -19 -4 -29 -9 -9 -5 -44 -19 -77
-31 -33 -13 -71 -31 -85 -40 -14 -10 -39 -21 -56 -24 -17 -4 -42 -18 -54 -32
-13 -13 -29 -24 -35 -24 -6 0 -29 -15 -51 -34 -21 -18 -59 -43 -83 -55 -100
-52 -145 -99 -206 -217 -9 -17 -29 -44 -45 -59 -17 -16 -30 -37 -30 -46 0 -10
-16 -39 -37 -65 -61 -81 -93 -137 -93 -163 0 -15 -9 -39 -20 -56 -11 -16 -20
-37 -20 -45 0 -9 -13 -41 -29 -72 -30 -58 -53 -162 -66 -307 -4 -41 -9 -95
-12 -120 -7 -66 -5 -333 3 -420 l7 -74 -38 7 c-21 4 -63 19 -94 33 -38 17 -85
28 -146 34 -108 10 -234 19 -255 19 -8 -1 -85 -2 -170 -3 -102 -1 -162 -6
-177 -14 -12 -7 -41 -13 -65 -13 -24 0 -54 -7 -67 -17 -22 -15 -78 -25 -220
-40 -30 -3 -64 -11 -75 -18 -12 -7 -48 -17 -81 -20 -66 -8 -101 -22 -128 -53
-10 -11 -42 -26 -70 -32 -29 -7 -69 -23 -89 -36 -21 -13 -46 -24 -56 -24 -9 0
-29 -8 -42 -17 -55 -39 -130 -81 -156 -87 -16 -4 -42 -20 -59 -36 -16 -16 -50
-34 -74 -40 -25 -6 -53 -22 -63 -36 -11 -13 -39 -32 -63 -43 -29 -13 -85 -63
-177 -157 -73 -76 -168 -173 -210 -216 -43 -42 -80 -89 -84 -103 -4 -14 -17
-33 -31 -42 -13 -9 -31 -30 -40 -46 -8 -17 -37 -57 -64 -89 -27 -33 -49 -65
-49 -71 0 -7 -18 -31 -40 -52 -22 -21 -40 -47 -40 -56 0 -9 -16 -37 -35 -61
-19 -23 -51 -65 -72 -92 -21 -26 -65 -80 -98 -119 -33 -38 -81 -97 -107 -131
-53 -69 -69 -86 -124 -137 -21 -20 -60 -62 -86 -95 -38 -48 -93 -111 -146
-167 -32 -35 -130 -118 -142 -122 -9 -3 -35 -23 -57 -45 -23 -21 -95 -76 -160
-120 -222 -152 -272 -191 -290 -220 -9 -17 -21 -30 -25 -30 -5 0 -22 -12 -38
-27 -17 -16 -50 -44 -74 -63 -24 -19 -47 -42 -52 -51 -5 -9 -26 -42 -47 -73
-21 -32 -41 -74 -44 -94 -4 -20 -19 -68 -35 -106 -15 -38 -28 -76 -28 -86 0
-9 -11 -43 -24 -76 -30 -73 -37 -139 -21 -179 7 -16 18 -46 24 -66 11 -36 179
-214 253 -269 18 -13 38 -28 43 -32 36 -29 113 -73 200 -114 22 -11 48 -27 59
-37 11 -9 30 -17 44 -17 13 0 33 -5 45 -12 34 -18 207 -28 237 -13 14 7 53 15
87 18 35 4 72 11 83 17 11 6 40 11 65 12 25 0 45 4 45 8 0 5 9 6 19 3 22 -6
141 27 141 39 0 4 9 8 20 8 11 0 20 4 20 10 0 5 19 14 43 21 23 6 50 15 60 20
10 5 21 8 25 5 4 -3 9 4 9 15 2 28 21 49 44 49 9 0 24 6 31 13 7 6 35 20 62
29 48 18 95 50 144 101 15 15 50 50 79 78 28 28 64 68 79 90 15 22 45 49 66
60 21 11 50 33 65 50 15 16 42 39 60 50 18 11 33 26 33 32 0 13 82 102 143
155 20 18 37 39 37 47 0 8 9 19 20 25 23 12 62 70 77 116 6 17 24 51 39 74 16
24 37 57 47 74 11 17 29 42 42 56 12 14 25 41 29 60 3 20 22 60 41 90 20 30
38 66 41 80 3 14 12 45 20 69 8 25 14 54 14 67 0 12 15 64 34 116 19 51 34
109 34 128 0 23 13 58 36 97 20 34 36 71 36 83 0 34 28 79 101 164 38 43 69
83 69 87 0 22 94 133 137 162 32 22 55 49 70 79 23 47 107 117 216 181 27 16
63 45 80 64 31 35 114 79 207 109 25 8 54 19 65 24 22 11 162 16 214 8 45 -7
59 -36 72 -146 8 -68 19 -105 50 -168 l40 -81 -20 -61 c-11 -34 -33 -81 -49
-104 -16 -24 -32 -54 -36 -68 -4 -14 -18 -47 -31 -75 -13 -27 -29 -66 -36 -85
-6 -19 -25 -64 -42 -100 -16 -36 -34 -85 -38 -109 -5 -24 -24 -64 -42 -90 -19
-26 -37 -65 -41 -86 -9 -49 -31 -117 -51 -155 -8 -16 -12 -35 -9 -43 3 -8 -4
-35 -15 -60 -12 -25 -21 -50 -21 -54 0 -4 -14 -35 -30 -68 -22 -43 -30 -74
-30 -112 0 -35 -8 -71 -25 -107 -14 -30 -25 -61 -25 -69 0 -8 -6 -32 -14 -54
-7 -21 -16 -58 -20 -82 -3 -23 -8 -47 -12 -52 -7 -12 -10 -57 -19 -244 -4 -77
-9 -143 -12 -147 -2 -5 3 -22 11 -39 8 -17 18 -58 21 -92 9 -86 38 -130 101
-156 17 -7 40 -25 52 -40 29 -39 104 -81 180 -100 59 -15 65 -19 68 -45 2 -16
8 -34 13 -39 6 -6 11 -22 11 -36 0 -14 14 -64 30 -112 26 -73 39 -95 88 -145
31 -33 71 -77 87 -99 16 -22 35 -43 41 -47 6 -4 17 -20 23 -35 6 -16 27 -38
46 -51 20 -12 51 -44 70 -70 19 -26 47 -56 61 -67 15 -11 34 -29 43 -39 37
-44 68 -69 101 -83 19 -8 58 -26 87 -39 28 -13 58 -24 65 -24 24 0 37 -21 31
-54 -3 -21 2 -45 16 -71 15 -30 21 -65 25 -135 4 -103 32 -222 70 -305 13 -29
27 -68 31 -86 4 -19 18 -47 31 -62 13 -16 26 -41 29 -55 3 -15 15 -49 27 -77
11 -27 22 -61 25 -75 3 -14 11 -39 19 -57 8 -17 14 -34 14 -39 0 -14 54 -119
71 -139 10 -11 32 -60 50 -110 17 -49 40 -100 50 -114 10 -13 19 -30 19 -37 0
-8 5 -14 11 -14 6 0 49 -37 95 -82 46 -46 91 -91 101 -100 10 -9 34 -37 53
-62 19 -25 54 -54 77 -65 23 -11 44 -25 48 -31 3 -5 16 -10 28 -10 13 0 31 -6
42 -14 11 -7 55 -28 97 -45 42 -18 81 -38 87 -45 6 -8 33 -21 59 -31 26 -10
58 -26 71 -37 13 -10 31 -18 40 -18 9 0 38 -11 66 -24 27 -12 64 -28 80 -34
17 -5 63 -24 104 -41 51 -22 90 -31 130 -32 31 0 81 -4 111 -8 44 -7 60 -5 80
8 14 9 55 32 93 51 37 18 67 37 67 41 0 5 13 23 29 41 15 18 43 65 62 103 30
63 33 78 31 153 -1 52 3 82 9 82 6 0 37 -7 69 -15 31 -8 75 -14 96 -13 21 0
71 -7 109 -16 88 -21 207 -36 220 -28 5 4 57 8 115 8 127 2 183 12 250 47 29
15 58 27 66 27 15 0 144 129 144 145 0 5 14 37 31 69 27 51 31 69 31 135 0
100 -15 221 -29 229 -6 4 -15 21 -19 37 -4 17 -11 35 -15 41 -5 6 -11 26 -13
45 -8 64 -19 94 -41 119 -24 27 -85 150 -105 212 -6 21 -15 40 -20 43 -4 3
-11 21 -14 40 -4 20 -20 50 -35 68 -27 30 -71 139 -71 173 0 9 -9 27 -19 40
-11 15 -22 49 -26 82 -7 64 -28 137 -56 199 -20 45 -32 87 -54 194 -15 73 -38
135 -60 159 -29 32 -22 42 30 46 105 7 135 11 162 22 15 6 44 13 64 16 20 4
44 15 54 26 10 11 48 35 86 54 89 46 155 95 168 126 13 29 72 111 117 162 21
24 34 51 39 84 4 26 15 70 26 97 25 63 27 167 4 227 -9 25 -25 79 -36 120 -10
41 -28 86 -39 100 -11 14 -38 63 -60 108 -22 46 -53 99 -70 118 -16 19 -37 49
-46 67 -26 52 -106 167 -125 180 -10 7 -23 26 -31 42 -13 31 -41 68 -68 92 -8
7 -37 32 -63 55 -29 25 -56 61 -69 90 -21 49 -68 98 -93 98 -7 0 -24 14 -37
32 -13 17 -47 56 -76 86 -30 29 -51 56 -48 59 2 3 31 5 63 4 31 0 77 6 101 14
23 8 60 15 81 15 22 0 48 8 62 19 13 10 53 31 89 47 36 15 68 33 72 40 4 6 37
24 73 39 36 16 65 32 65 37 0 5 25 20 55 34 30 14 57 30 61 35 3 5 33 22 67
38 113 51 330 242 374 329 16 32 60 87 104 131 41 42 86 94 99 116 13 22 36
56 52 75 16 19 28 47 28 63 0 15 11 49 24 75 13 26 29 68 35 92 7 25 18 62 26
82 17 43 33 230 41 478 3 96 6 182 6 190 1 8 -3 69 -7 136 -6 93 -5 126 6 145
24 43 38 186 23 235 -7 23 -11 44 -8 47 2 2 -3 20 -11 40 -8 20 -15 52 -15 72
0 20 -8 52 -19 73 -10 20 -21 53 -24 72 -11 83 -30 121 -78 158 -42 33 -48 43
-59 96 -10 52 -20 69 -71 124 -32 36 -59 71 -59 80 0 8 -26 40 -58 71 -32 31
-80 87 -108 126 -53 76 -168 193 -224 230 -19 12 -46 34 -59 49 -14 14 -30 26
-37 26 -7 0 -23 15 -35 33 -22 31 -73 89 -135 151 -17 17 -44 38 -60 46 -56
29 -140 90 -199 144 -58 54 -116 83 -250 126 -22 7 -67 23 -100 36 -47 19 -71
23 -106 18 -30 -4 -55 -2 -70 6 -13 7 -38 13 -57 12 -18 -1 -57 8 -85 19 -76
30 -197 46 -322 43 -63 -2 -134 3 -167 10 -36 8 -62 10 -73 3z m574 -528 c151
-17 274 -53 408 -119 168 -82 373 -221 453 -307 71 -76 96 -110 284 -388 135
-200 269 -495 328 -719 28 -105 32 -138 32 -246 0 -94 -5 -137 -18 -173 -17
-47 -17 -50 4 -113 17 -51 21 -83 19 -147 -4 -74 -9 -92 -51 -180 -26 -54 -60
-114 -75 -135 -36 -49 -212 -262 -234 -284 -9 -9 -19 -21 -20 -26 -5 -12 -178
-130 -228 -155 -20 -11 -108 -65 -196 -122 -88 -56 -207 -126 -264 -154 -127
-64 -182 -72 -516 -74 l-230 -2 -28 -55 c-25 -51 -27 -63 -24 -150 3 -82 9
-108 42 -190 141 -357 339 -636 644 -911 189 -170 353 -340 379 -392 14 -28
22 -63 22 -95 0 -43 -5 -57 -38 -99 -46 -57 -96 -97 -158 -125 -100 -44 -372
-32 -518 22 -69 26 -290 153 -372 214 -36 27 -68 46 -71 43 -3 -3 18 -72 47
-154 97 -277 265 -778 289 -861 29 -100 175 -400 258 -532 33 -52 73 -120 88
-150 15 -30 63 -115 107 -188 134 -224 188 -358 188 -470 0 -114 -62 -162
-186 -142 -104 17 -183 48 -372 148 -188 98 -333 199 -536 371 -74 62 -88 71
-84 50 52 -242 82 -415 98 -578 19 -178 19 -203 6 -235 -21 -51 -64 -70 -161
-70 -74 0 -86 3 -161 41 -292 150 -532 447 -692 858 -105 268 -251 708 -296
889 -14 54 -27 100 -29 102 -2 2 -49 26 -106 54 -187 91 -242 139 -349 296
-84 125 -103 168 -160 350 -62 197 -71 260 -79 537 -3 120 -10 216 -15 215 -5
-2 -32 -33 -61 -69 -111 -141 -226 -266 -257 -279 -110 -46 -155 96 -111 345
57 315 169 641 338 980 92 184 132 252 252 424 47 69 89 130 93 137 4 6 -16
55 -47 111 -59 107 -107 242 -126 350 -14 79 -17 214 -6 264 l7 36 -97 26
c-141 37 -202 47 -343 54 -360 17 -747 -91 -1055 -294 -326 -216 -549 -476
-737 -863 -39 -80 -108 -222 -154 -316 -168 -344 -396 -635 -696 -885 -138
-116 -240 -167 -454 -227 -138 -38 -195 -46 -264 -32 -125 24 -190 82 -198
175 -9 105 47 161 246 250 196 86 278 133 408 233 245 188 372 354 610 799
187 348 252 448 413 629 157 178 394 364 621 487 186 101 465 194 716 238 171
31 522 33 679 5 152 -28 274 -71 343 -123 l32 -24 73 74 c94 97 165 148 295
216 l107 56 6 135 c4 74 10 203 13 287 8 192 45 414 88 530 33 88 135 257 215
358 23 29 73 76 110 104 147 110 544 288 748 335 39 9 97 23 130 31 70 17 472
13 634 -6z"/>
<path d="M6438 7485 c-77 -21 -190 -98 -268 -183 -78 -86 -119 -157 -123 -217
l-2 -40 80 0 c142 1 217 54 333 238 53 85 97 190 87 208 -8 12 -49 10 -107 -6z"/>
<path d="M7047 7412 c-3 -4 -8 -32 -12 -62 -20 -154 -45 -242 -102 -353 -49
-97 -69 -124 -147 -203 -50 -50 -116 -105 -147 -122 -74 -42 -218 -79 -337
-88 -53 -4 -101 -9 -105 -11 -14 -8 201 -228 345 -355 78 -67 171 -150 207
-184 81 -74 207 -179 321 -264 47 -35 117 -90 157 -123 69 -57 74 -59 115 -53
45 6 63 7 112 6 30 -1 174 64 258 116 74 46 343 300 417 394 90 113 155 208
171 248 13 33 13 34 -46 94 -87 89 -440 403 -552 490 -30 24 -129 103 -220
175 -245 195 -423 316 -435 295z"/>
<path d="M5105 6587 c-167 -97 -303 -260 -334 -400 -13 -55 0 -166 31 -272 19
-68 84 -210 113 -249 18 -24 24 -20 123 99 42 49 121 139 175 199 l99 108 -7
80 c-3 43 -15 98 -25 121 -25 56 -57 186 -65 267 -12 109 -8 107 -110 47z"/>
<path d="M5055 4616 c-6 -8 -42 -51 -81 -97 -39 -46 -132 -169 -207 -272
l-137 -188 0 -72 c0 -67 14 -213 41 -432 19 -160 94 -344 190 -473 22 -29 70
-77 107 -108 66 -54 207 -133 218 -121 6 5 -12 147 -57 456 -11 74 -24 218
-30 319 -5 102 -12 189 -15 193 -3 5 -5 189 -5 409 1 220 -3 400 -7 400 -4 0
-12 -6 -17 -14z"/>
</g>
</svg>
